<svg width="341" height="81" viewBox="0 0 341 81" fill="none" xmlns="http://www.w3.org/2000/svg">
<path d="M57.6008 61.0176C59.3894 61.0176 61.0764 60.8548 62.6212 60.5293C64.1659 60.2038 65.4464 59.8173 66.4424 59.3493C67.4384 58.8814 68.3124 58.3728 69.0441 57.8235C69.7961 57.2539 70.3246 56.7656 70.6701 56.3384C71.0157 55.9111 71.2392 55.5449 71.3409 55.2397H71.8287C71.8287 55.7687 71.6661 56.4197 71.3612 57.2335C71.0563 58.0473 70.5482 58.9425 69.8165 59.9597C69.0847 60.9769 68.2107 61.9128 67.1741 62.7672C66.1375 63.6217 64.7554 64.3541 63.048 64.9441C61.3407 65.5341 59.4504 65.8393 57.3975 65.8393C55.3446 65.8393 53.2308 65.4934 51.2389 64.8017C49.2266 64.11 47.438 63.2148 45.8526 62.1162C44.2672 61.0176 42.7224 59.7969 41.198 58.4542C39.6939 57.1114 38.2508 55.7891 36.889 54.4463C35.5272 53.1036 34.206 51.8626 32.9255 50.7436C31.645 49.6247 30.3035 48.7092 28.901 47.9971C27.4986 47.285 26.1368 46.9188 24.7953 46.8781L21.035 51.9032V56.3994C21.035 57.4776 21.096 58.3932 21.218 59.1866C21.3399 59.98 21.5635 60.6311 21.8481 61.1397C22.1326 61.6483 22.4578 62.0755 22.783 62.3807C23.1286 62.7062 23.5554 62.9503 24.1042 63.1131C24.653 63.2758 25.1611 63.3776 25.6693 63.4386C26.1774 63.4996 26.7872 63.52 27.5392 63.52V64.0286H10.0186V63.52C10.9129 63.52 11.6649 63.4793 12.2544 63.3979C12.8438 63.3165 13.4333 63.1538 14.043 62.869C14.6528 62.6045 15.1203 62.2179 15.4658 61.7093C15.8113 61.2007 16.0756 60.509 16.2992 59.6342C16.5227 58.7594 16.6244 57.6811 16.6244 56.3994V35.0376C16.6244 33.7559 16.5227 32.6776 16.2992 31.8028C16.0959 30.928 15.8113 30.2363 15.4658 29.7277C15.1203 29.2191 14.6528 28.8325 14.043 28.568C13.4333 28.3036 12.8438 28.1205 12.2544 28.0594C11.6649 27.9984 10.9332 27.9577 10.0186 27.9577V27.4694H27.5392V27.9577C26.6449 27.9577 25.8928 27.9984 25.3237 28.0594C24.7546 28.1205 24.1448 28.3036 23.5554 28.568C22.9456 28.8325 22.4781 29.2191 22.1529 29.7277C21.8277 30.2363 21.5432 30.928 21.3399 31.8028C21.1367 32.6776 21.0147 33.7559 21.0147 35.0376V51.0284L33.0678 34.8952C34.5922 32.8404 35.3646 31.2332 35.3646 30.0939C35.3646 29.3208 34.9784 28.7715 34.1857 28.446C33.393 28.1205 32.2344 27.9577 30.6897 27.9577V27.4694H45.8119V27.9577C41.2183 27.9577 37.1939 30.277 33.7182 34.9359L25.2018 46.3288C26.5839 46.4102 27.9661 46.7561 29.3482 47.3257C30.7303 47.8954 32.0312 48.6278 33.271 49.5026C34.5109 50.3774 35.7711 51.3336 37.0719 52.3508C38.3728 53.3681 39.7549 54.4056 41.198 55.4229C42.6411 56.4401 44.1656 57.3759 45.7509 58.2101C47.3363 59.0442 49.1453 59.7359 51.1982 60.2445C53.2511 60.7531 55.3853 61.0176 57.6211 61.0176H57.6008ZM57.4382 54.0801C54.8162 54.0801 52.4177 53.4698 50.1819 52.2491C47.9664 51.0284 46.2184 49.3602 44.9379 47.2443C43.6574 45.1285 43.007 42.8092 43.007 40.3069C43.007 38.3945 43.3932 36.5838 44.1452 34.8749C44.8973 33.1659 45.9339 31.6808 47.2144 30.4601C48.4949 29.2394 50.0193 28.2425 51.808 27.5101C53.5966 26.7777 55.4666 26.4115 57.4178 26.4115C60.0195 26.4115 62.4179 27.0219 64.6334 28.2629C66.8489 29.5039 68.5969 31.1721 69.8774 33.3083C71.1579 35.4445 71.8084 37.7638 71.8084 40.3069C71.8084 42.8499 71.1579 45.1285 69.8774 47.2443C68.5969 49.3602 66.8286 51.0284 64.6334 52.2491C62.4383 53.4698 60.0195 54.0801 57.4178 54.0801H57.4382ZM57.4382 26.9405C55.7308 26.9405 54.1454 27.5305 52.7023 28.7308C51.2592 29.9108 50.121 31.5384 49.2876 33.5932C48.4543 35.648 48.0477 37.8858 48.0477 40.3069C48.0477 42.7279 48.4543 44.9251 49.2876 46.9392C50.121 48.9736 51.2592 50.5808 52.7023 51.7405C54.1454 52.9001 55.7308 53.5105 57.4382 53.5105C60.0195 53.5105 62.235 52.2288 64.0643 49.645C65.8936 47.0612 66.8083 43.9485 66.8083 40.3069C66.8083 36.6652 65.8936 33.4507 64.0643 30.8466C62.235 28.2425 60.0195 26.9405 57.4382 26.9405Z" fill="#1A171B"/>
<path d="M85.3859 43.4806V56.379C85.3859 57.6607 85.4875 58.739 85.7111 59.6342C85.9143 60.5293 86.1989 61.221 86.5241 61.7093C86.8493 62.1976 87.2965 62.5841 87.8453 62.8486C88.4144 63.1131 88.9428 63.2962 89.4713 63.3776C89.9998 63.4589 90.6502 63.4996 91.4632 63.4996V64.0082H75.0401V63.4996C75.6092 63.4996 76.0767 63.4996 76.4832 63.4589C76.8898 63.4183 77.2963 63.3572 77.7638 63.2352C78.2109 63.1334 78.5971 62.9707 78.902 62.7672C79.2069 62.5638 79.5118 62.279 79.8166 61.9331C80.1215 61.5872 80.3451 61.16 80.528 60.6514C80.711 60.1428 80.8533 59.5528 80.9549 58.8204C81.0565 58.1083 81.1175 57.2945 81.1175 56.379V46.5119L76.0767 50.0112V49.2788L81.1175 45.7795V35.0173C81.1175 34.3459 81.1175 33.8169 81.1175 33.4507C81.1175 33.0845 81.0972 32.6573 81.0768 32.169C81.0768 31.6808 81.0362 31.3146 80.9955 31.0704C80.9549 30.8263 80.8939 30.5415 80.8329 30.2363C80.7719 29.9311 80.6703 29.7073 80.5687 29.5649C80.4671 29.4225 80.3248 29.2801 80.1622 29.1377C79.9996 28.9953 79.8166 28.8936 79.5931 28.8529C79.3695 28.8122 79.1256 28.7918 78.841 28.7918C78.2109 28.7918 76.9711 29.036 75.1011 29.5649V29.097L84.9997 26.3708H85.4672V42.7889L90.4876 39.3303V40.022L85.4672 43.4603L85.3859 43.4806Z" fill="#1A171B"/>
<path d="M103.354 43.4806V56.379C103.354 57.6607 103.455 58.739 103.679 59.6342C103.882 60.5293 104.167 61.221 104.492 61.7093C104.817 62.1976 105.264 62.5841 105.813 62.8486C106.382 63.1131 106.911 63.2962 107.439 63.3776C107.968 63.4589 108.618 63.4996 109.431 63.4996V64.0082H93.008V63.4996C93.5771 63.4996 94.0446 63.4996 94.4511 63.4589C94.8576 63.4183 95.2641 63.3572 95.7316 63.2352C96.1787 63.1334 96.5649 62.9707 96.8698 62.7672C97.1747 62.5638 97.4796 62.279 97.7845 61.9331C98.0894 61.5872 98.3129 61.16 98.4959 60.6514C98.6788 60.1428 98.8211 59.5528 98.9227 58.8204C99.0243 58.1083 99.0853 57.2945 99.0853 56.379V46.5119L94.0446 50.0112V49.2788L99.0853 45.7795V35.0173C99.0853 34.3459 99.0853 33.8169 99.0853 33.4507C99.0853 33.0845 99.065 32.6573 99.0447 32.169C99.0447 31.6808 99.004 31.3146 98.9634 31.0704C98.9227 30.8263 98.8617 30.5415 98.8007 30.2363C98.7398 29.9311 98.6381 29.7073 98.5365 29.5649C98.4349 29.4225 98.2926 29.2801 98.13 29.1377C97.9674 28.9953 97.7845 28.8936 97.5609 28.8529C97.3373 28.8122 97.0934 28.7918 96.8088 28.7918C96.1787 28.7918 94.9389 29.036 93.0689 29.5649V29.097L102.967 26.3708H103.435V42.7889L108.455 39.3303V40.022L103.435 43.4603L103.354 43.4806Z" fill="#1A171B"/>
<path d="M153.741 64.0082H145.387C144.818 64.761 144.35 65.7375 144.005 66.9582C143.659 68.1789 143.476 69.3589 143.476 70.4982C143.476 71.6375 143.659 72.4512 144.025 73.1023C144.391 73.7533 144.96 74.0788 145.712 74.0788C146.464 74.0788 147.237 73.7736 147.907 73.1429C148.578 72.5123 149.046 71.9019 149.351 71.2713L149.838 71.5154C149.696 71.8002 149.513 72.1054 149.29 72.4512C149.066 72.7767 148.741 73.143 148.314 73.5498C147.887 73.9567 147.379 74.3026 146.749 74.5671C146.119 74.8315 145.448 74.9536 144.716 74.9536C143.395 74.9536 142.237 74.5467 141.241 73.7126C140.245 72.8785 139.757 71.8002 139.757 70.4575C139.757 68.0772 141.444 65.9206 144.818 63.9879H134.127V63.4793C135.102 63.4793 135.915 63.4793 136.545 63.4183C137.175 63.3776 137.806 63.2758 138.456 63.1334C139.106 62.991 139.574 62.7672 139.899 62.4621C140.204 62.1569 140.468 61.7703 140.631 61.3024C140.814 60.8345 140.834 60.2242 140.712 59.4714C140.59 58.739 140.346 57.8642 139.94 56.8673L138.171 52.2694H125.488C123.415 52.2694 121.87 52.6153 120.874 53.3274C119.878 54.0394 118.984 55.2601 118.232 57.0301C117.765 58.1694 117.521 59.1256 117.521 59.8783C117.521 62.2586 119.614 63.4386 123.781 63.4386V63.9472H108.313V63.4386C110.407 63.4386 112.256 62.869 113.862 61.75C115.468 60.6311 116.891 58.6373 118.11 55.8297L128.7 31.6401C128.984 30.867 129.127 30.2973 129.127 29.9922C129.127 29.1173 128.517 28.5477 127.257 28.2832C126.017 28.0391 123.761 27.8967 120.448 27.8967V27.4084H143.232V27.8967C139.777 27.8967 137.44 28.0187 136.2 28.2629C134.96 28.507 134.33 29.097 134.33 30.0329C134.33 30.277 134.432 30.6432 134.614 31.1315L144.615 56.847C145.082 58.027 145.57 59.0442 146.098 59.8783C146.627 60.7124 147.155 61.3635 147.684 61.811C148.212 62.2586 148.802 62.6248 149.513 62.869C150.204 63.1131 150.855 63.2758 151.444 63.3369C152.033 63.3979 152.765 63.4386 153.639 63.4386V63.9472L153.741 64.0082ZM126.159 51.7405H138.009L131.383 34.7121C131.057 33.9594 130.793 33.4304 130.549 33.1049C130.326 32.7794 130.062 32.6166 129.757 32.6166C129.472 32.6166 129.208 32.7794 128.964 33.0845C128.72 33.4101 128.435 33.8983 128.11 34.6104L123.883 44.3147C122.927 46.4306 122.46 48.0378 122.46 49.1567C122.46 50.0519 122.765 50.7029 123.354 51.1098C123.964 51.5167 124.899 51.7201 126.159 51.7201V51.7405Z" fill="#1A171B"/>
<path d="M159.249 63.4996C160.143 63.4996 160.895 63.4589 161.485 63.3776C162.074 63.2962 162.664 63.1334 163.274 62.8486C163.883 62.5841 164.351 62.1976 164.696 61.689C165.042 61.1804 165.306 60.4886 165.53 59.6138C165.753 58.739 165.855 57.6607 165.855 56.379V33.4711C165.855 31.3959 165.631 29.9718 165.184 29.1784C164.737 28.3849 164.005 27.9984 162.969 27.9984C161.18 27.9984 159.29 28.9749 157.277 30.9484C155.265 32.9218 152.948 36.0955 150.346 40.5306H149.838L153.964 27.4694H182.176L186.241 40.5306H185.754C183.111 36.0955 180.774 32.9014 178.782 30.9484C176.77 28.9953 174.879 28.0187 173.07 28.0187C172.075 28.0187 171.343 28.4053 170.916 29.1987C170.489 29.9922 170.266 31.4163 170.266 33.4914V56.3994C170.266 57.4776 170.327 58.3932 170.448 59.1866C170.57 59.98 170.794 60.6311 171.079 61.1397C171.363 61.6483 171.688 62.0755 172.014 62.3807C172.359 62.7062 172.786 62.9503 173.335 63.1131C173.883 63.2758 174.392 63.3776 174.9 63.4386C175.408 63.4996 176.018 63.52 176.77 63.52V64.0286H159.249V63.4996Z" fill="#1A171B"/>
<path d="M207.604 31.1721L217.604 56.8877C218.071 58.0676 218.559 59.0849 219.088 59.919C219.616 60.7531 220.145 61.4041 220.673 61.8517C221.201 62.2993 221.791 62.6655 222.502 62.9096C223.193 63.1538 223.844 63.3165 224.433 63.3776C225.023 63.4386 225.754 63.4793 226.628 63.4793V63.9879H207.014V63.4793C207.99 63.4793 208.803 63.4793 209.433 63.4183C210.063 63.3776 210.693 63.2758 211.344 63.1334C211.994 62.991 212.461 62.7672 212.787 62.4621C213.092 62.1569 213.356 61.7703 213.518 61.3024C213.701 60.8345 213.722 60.2242 213.6 59.4714C213.478 58.739 213.234 57.8642 212.827 56.8673L211.059 52.2694H198.376C196.303 52.2694 194.758 52.6153 193.762 53.3274C192.766 54.0394 191.872 55.2601 191.12 57.0301C190.652 58.1694 190.408 59.1256 190.408 59.8783C190.408 62.2586 192.502 63.4386 196.668 63.4386V63.9472H181.201V63.4386C183.294 63.4386 185.144 62.869 186.75 61.75C188.355 60.6311 189.778 58.6373 190.998 55.8297L201.587 31.6401C201.872 30.867 202.014 30.2973 202.014 29.9922C202.014 29.1173 201.404 28.5477 200.144 28.2832C198.904 28.0391 196.648 27.8967 193.335 27.8967V27.4084H216.12V27.8967C212.665 27.8967 210.327 28.0187 209.087 28.2629C207.848 28.507 207.217 29.097 207.217 30.0329C207.217 30.277 207.319 30.6432 207.502 31.1315L207.604 31.1721ZM199.047 51.7405H210.896L204.27 34.7121C203.945 33.9594 203.681 33.4304 203.437 33.1049C203.213 32.7794 202.949 32.6166 202.644 32.6166C202.36 32.6166 202.095 32.7794 201.852 33.0845C201.608 33.4101 201.323 33.8983 200.998 34.6104L196.77 44.3147C195.815 46.4306 195.347 48.0378 195.347 49.1567C195.347 50.0519 195.652 50.7029 196.242 51.1098C196.851 51.5167 197.786 51.7201 199.047 51.7201V51.7405Z" fill="#1A171B"/>
<path d="M226.75 71.8206V71.3526C228.498 71.3526 229.962 70.4371 231.141 68.6061C232.32 66.7751 232.909 63.9065 232.909 60.0207V35.0173C232.909 33.7356 232.807 32.6573 232.584 31.7825C232.381 30.9077 232.096 30.216 231.75 29.7073C231.405 29.1987 230.937 28.8122 230.328 28.5477C229.718 28.2832 229.128 28.1001 228.539 28.0391C227.95 27.9781 227.218 27.9374 226.303 27.9374V27.4491H243.824V27.9374C242.93 27.9374 242.177 27.9781 241.608 28.0391C241.039 28.1001 240.429 28.2832 239.84 28.5477C239.23 28.8122 238.763 29.1987 238.438 29.7073C238.112 30.216 237.828 30.9077 237.625 31.7825C237.421 32.6573 237.299 33.7356 237.299 35.0173V60.0207C237.299 62.1366 237.015 63.9879 236.446 65.5544C235.877 67.121 235.084 68.3416 234.088 69.2368C233.092 70.132 231.974 70.783 230.755 71.1899C229.535 71.5968 228.193 71.8206 226.71 71.8206H226.75Z" fill="#1A171B"/>
<path d="M268.906 31.1721L278.906 56.8877C279.373 58.0676 279.861 59.0849 280.39 59.919C280.918 60.7531 281.447 61.4041 281.975 61.8517C282.503 62.2993 283.093 62.6655 283.804 62.9096C284.495 63.1538 285.146 63.3165 285.735 63.3776C286.325 63.4386 287.056 63.4793 287.93 63.4793V63.9879H268.316V63.4793C269.292 63.4793 270.105 63.4793 270.735 63.4183C271.365 63.3776 271.995 63.2758 272.646 63.1334C273.296 62.991 273.763 62.7672 274.089 62.4621C274.394 62.1569 274.658 61.7703 274.82 61.3024C275.003 60.8345 275.024 60.2242 274.902 59.4714C274.78 58.739 274.536 57.8642 274.129 56.8673L272.361 52.2694H259.678C257.605 52.2694 256.06 52.6153 255.064 53.3274C254.068 54.0394 253.174 55.2601 252.422 57.0301C251.954 58.1694 251.71 59.1256 251.71 59.8783C251.71 62.2586 253.804 63.4386 257.97 63.4386V63.9472H242.503V63.4386C244.596 63.4386 246.446 62.869 248.052 61.75C249.657 60.6311 251.08 58.6373 252.3 55.8297L262.889 31.6401C263.174 30.867 263.316 30.2973 263.316 29.9922C263.316 29.1173 262.706 28.5477 261.446 28.2832C260.206 28.0391 257.95 27.8967 254.637 27.8967V27.4084H277.422V27.8967C273.967 27.8967 271.629 28.0187 270.389 28.2629C269.15 28.507 268.519 29.097 268.519 30.0329C268.519 30.277 268.621 30.6432 268.804 31.1315L268.906 31.1721ZM260.349 51.7405H272.198L265.572 34.7121C265.247 33.9594 264.983 33.4304 264.739 33.1049C264.515 32.7794 264.251 32.6166 263.946 32.6166C263.662 32.6166 263.397 32.7794 263.154 33.0845C262.91 33.4101 262.625 33.8983 262.3 34.6104L258.072 44.3147C257.117 46.4306 256.649 48.0378 256.649 49.1567C256.649 50.0519 256.954 50.7029 257.544 51.1098C258.153 51.5167 259.088 51.7201 260.349 51.7201V51.7405Z" fill="#1A171B"/>
<path d="M330.98 43.3992H329.456V26.737C329.456 16.1986 320.878 7.61316 310.35 7.61316C299.821 7.61316 291.243 16.1986 291.243 26.737V43.3992H289.719V26.737C289.719 15.3441 298.967 6.08732 310.35 6.08732C321.732 6.08732 330.98 15.3441 330.98 26.737V43.3992Z" fill="#1A171B"/>
<path d="M298.378 43.1754V41.9548L304.028 35.8717C304.74 35.0986 305.329 34.4273 305.776 33.8576C306.223 33.288 306.549 32.759 306.752 32.2708C306.955 31.7825 307.057 31.2535 307.057 30.7042C307.057 30.0329 306.894 29.4632 306.61 28.9546C306.305 28.4663 305.898 28.0798 305.37 27.795C304.841 27.5305 304.232 27.3881 303.561 27.3881C302.89 27.3881 302.219 27.5305 301.691 27.8356C301.162 28.1408 300.756 28.5477 300.451 29.097C300.166 29.626 300.024 30.2566 300.024 30.9484H298.5C298.5 29.9718 298.723 29.1173 299.15 28.3646C299.577 27.6119 300.187 27.0219 300.959 26.5946C301.731 26.1674 302.605 25.9436 303.601 25.9436C304.597 25.9436 305.431 26.147 306.183 26.5539C306.935 26.9608 307.524 27.5305 307.951 28.2425C308.378 28.9546 308.602 29.748 308.602 30.6432C308.602 31.2739 308.5 31.8842 308.256 32.4742C308.032 33.0642 307.646 33.7152 307.118 34.4273C306.589 35.1393 305.858 35.9938 304.902 36.9907L300.593 41.6089V41.6903H309.028V43.1347H298.378V43.1754Z" fill="#1A171B"/>
<path d="M316.752 43.3992C315.675 43.3992 314.74 43.1958 313.906 42.8092C313.073 42.4227 312.402 41.8734 311.915 41.1613C311.427 40.4696 311.183 39.6558 311.163 38.7403H312.768C312.789 39.3913 312.972 39.9406 313.317 40.4289C313.663 40.9172 314.13 41.2834 314.72 41.5479C315.309 41.8123 315.98 41.9548 316.711 41.9548C317.504 41.9548 318.195 41.8123 318.785 41.5275C319.374 41.2427 319.862 40.8358 320.207 40.3272C320.553 39.8186 320.716 39.2286 320.716 38.5776C320.716 37.9265 320.533 37.2959 320.167 36.7872C319.801 36.2786 319.293 35.8717 318.642 35.5869C317.992 35.3021 317.22 35.1597 316.325 35.1597H315.329V33.7152H316.325C317.077 33.7152 317.728 33.5932 318.297 33.3287C318.866 33.0642 319.313 32.698 319.638 32.2301C319.964 31.7621 320.126 31.1925 320.126 30.5415C320.126 29.8904 319.984 29.3615 319.699 28.8732C319.415 28.4053 319.008 28.0187 318.5 27.7543C317.992 27.4898 317.382 27.3474 316.691 27.3474C316 27.3474 315.411 27.4694 314.862 27.7339C314.313 27.9984 313.886 28.3646 313.561 28.8325C313.236 29.3005 313.073 29.8701 313.053 30.5211H311.508C311.508 29.626 311.752 28.8325 312.219 28.1408C312.687 27.4491 313.297 26.8998 314.089 26.5132C314.882 26.1267 315.756 25.9233 316.732 25.9233C317.707 25.9233 318.602 26.1267 319.354 26.5336C320.106 26.9405 320.675 27.4898 321.102 28.1612C321.529 28.8325 321.732 29.6056 321.732 30.4397C321.732 31.3959 321.468 32.2097 320.919 32.9014C320.39 33.5932 319.659 34.0611 318.744 34.3256V34.4069C319.476 34.5493 320.106 34.8138 320.634 35.18C321.163 35.5666 321.569 36.0345 321.854 36.6245C322.138 37.2145 322.281 37.8452 322.281 38.5572C322.281 39.4727 322.037 40.2865 321.569 41.0189C321.081 41.731 320.431 42.3006 319.598 42.7279C318.764 43.1551 317.809 43.3585 316.732 43.3585L316.752 43.3992Z" fill="#1A171B"/>
<path d="M93.4754 18.233L97.8861 6.25008H99.2073L103.638 18.233H102.439L99.5934 10.38C99.4308 9.93244 99.2479 9.44417 99.065 8.85418C98.8821 8.28453 98.6585 7.59282 98.3942 6.75869H98.6585C98.4146 7.57247 98.191 8.28453 98.0081 8.85418C97.8251 9.44417 97.6422 9.93244 97.4999 10.3597L94.6747 18.2127H93.4958L93.4754 18.233ZM95.5487 14.6727V13.6758H101.585V14.6727H95.5487Z" fill="#1A171B"/>
<path d="M106.362 18.233V6.25008H110.325C111.159 6.25008 111.85 6.41283 112.439 6.73835C113.008 7.06386 113.455 7.49109 113.74 8.0404C114.045 8.5897 114.187 9.22038 114.187 9.93244C114.187 10.6445 114.045 11.2752 113.74 11.8245C113.435 12.3738 113.008 12.8214 112.439 13.1469C111.87 13.4724 111.159 13.6351 110.325 13.6351H107.175V12.6179H110.305C110.915 12.6179 111.423 12.4959 111.829 12.2721C112.236 12.0483 112.541 11.7228 112.764 11.3159C112.968 10.909 113.09 10.4411 113.09 9.93244C113.09 9.42383 112.988 8.9559 112.764 8.54901C112.561 8.14212 112.236 7.83695 111.829 7.61316C111.423 7.38937 110.915 7.2673 110.305 7.2673H107.52V18.233H106.362Z" fill="#1A171B"/>
<path d="M115.041 18.233L119.431 6.25008H120.752L125.183 18.233H123.984L121.139 10.38C120.976 9.93244 120.793 9.44417 120.61 8.85418C120.427 8.28453 120.204 7.59282 119.939 6.75869H120.204C119.96 7.57247 119.736 8.28453 119.553 8.85418C119.37 9.44417 119.187 9.93244 119.045 10.3597L116.22 18.2127H115.041V18.233ZM117.094 14.6727V13.6758H123.13V14.6727H117.094Z" fill="#1A171B"/>
<path d="M127.927 18.233V6.25008H131.911C132.744 6.25008 133.436 6.39249 134.025 6.69766C134.594 7.00282 135.041 7.43006 135.326 7.95902C135.631 8.50832 135.773 9.11866 135.773 9.83072C135.773 10.5428 135.631 11.1531 135.326 11.7024C135.021 12.2314 134.594 12.6586 134.005 12.9638C133.415 13.2689 132.724 13.4114 131.891 13.4114H128.557V12.3941H131.87C132.48 12.3941 132.988 12.2924 133.395 12.089C133.801 11.8855 134.106 11.5803 134.33 11.2141C134.533 10.8276 134.635 10.38 134.635 9.87141C134.635 9.36279 134.533 8.89487 134.33 8.50832C134.127 8.12177 133.801 7.81661 133.395 7.61316C132.988 7.38937 132.48 7.28765 131.87 7.28765H129.066V18.2534H127.948L127.927 18.233ZM134.879 18.233L131.972 12.8214H133.253L136.18 18.233H134.879Z" fill="#1A171B"/>
<path d="M138.314 7.2673V6.25008H147.115V7.2673H143.293V18.233H142.155V7.2673H138.314Z" fill="#1A171B"/>
<path d="M150.225 18.233V6.25008H151.81L155.164 14.4896C155.245 14.6727 155.326 14.8762 155.408 15.1203C155.489 15.3644 155.59 15.6086 155.672 15.873C155.753 16.1375 155.855 16.402 155.936 16.6665C156.017 16.931 156.099 17.1751 156.16 17.3785H155.875C155.956 17.1548 156.038 16.931 156.119 16.6665C156.2 16.402 156.302 16.1579 156.383 15.8934C156.485 15.6289 156.566 15.3848 156.647 15.1406C156.729 14.8965 156.81 14.6931 156.891 14.51L160.225 6.27042H161.83V18.2534H160.713V10.6242C160.713 10.38 160.713 10.1359 160.713 9.85106C160.713 9.56624 160.713 9.28141 160.713 8.97625C160.713 8.67108 160.713 8.36591 160.713 8.06074C160.713 7.75557 160.713 7.4504 160.713 7.16558H160.855C160.753 7.49109 160.631 7.81661 160.509 8.14212C160.387 8.46763 160.286 8.79314 160.164 9.07797C160.062 9.38314 159.94 9.66796 159.859 9.93244C159.778 10.1969 159.676 10.4207 159.595 10.6242L156.464 18.2534H155.489L152.338 10.6242C152.257 10.4207 152.176 10.1969 152.074 9.93244C151.973 9.66796 151.871 9.40348 151.769 9.09831C151.668 8.79314 151.546 8.48798 151.424 8.16246C151.302 7.83695 151.18 7.51144 151.058 7.16558H151.22C151.22 7.43006 151.22 7.73523 151.22 8.02005C151.22 8.32522 151.22 8.63039 151.22 8.93556C151.22 9.24072 151.22 9.54589 151.22 9.83072C151.22 10.1155 151.22 10.38 151.22 10.6242V18.2534H150.143L150.225 18.233Z" fill="#1A171B"/>
<path d="M165.672 6.25008H172.806V7.2673H166.81V11.6821H172.4V12.6993H166.81V17.2361H172.888V18.2534H165.672V6.25008Z" fill="#1A171B"/>
<path d="M176.201 18.233V6.25008H177.501L182.969 14.4082C183.111 14.632 183.294 14.8965 183.477 15.1813C183.66 15.4662 183.863 15.7917 184.067 16.1375C184.27 16.4834 184.473 16.8292 184.656 17.2158L184.493 17.2565C184.473 16.8903 184.453 16.5037 184.432 16.1375C184.432 15.7713 184.412 15.4255 184.392 15.1C184.392 14.7744 184.392 14.4896 184.392 14.2455V6.25008H185.53V18.233H184.229L179.127 10.6445C178.945 10.3597 178.741 10.0545 178.558 9.74934C178.355 9.44417 178.132 9.07797 177.908 8.69142C177.664 8.30488 177.4 7.83695 177.075 7.30799L177.298 7.24696C177.298 7.73523 177.339 8.20315 177.339 8.63039C177.339 9.05762 177.359 9.44417 177.379 9.79003C177.379 10.1359 177.379 10.4207 177.379 10.6445V18.2534H176.241L176.201 18.233Z" fill="#1A171B"/>
<path d="M188.62 7.2673V6.25008H197.421V7.2673H193.599V18.233H192.461V7.2673H188.62Z" fill="#1A171B"/>
<path d="M204.128 18.4365C203.295 18.4365 202.583 18.294 201.973 18.0092C201.364 17.7244 200.876 17.3379 200.53 16.8292C200.185 16.3206 200.002 15.751 199.961 15.0796H201.12C201.16 15.5679 201.303 15.9951 201.567 16.341C201.831 16.6868 202.197 16.9513 202.624 17.1141C203.071 17.2972 203.559 17.3785 204.108 17.3785C204.717 17.3785 205.246 17.2768 205.693 17.0734C206.161 16.8699 206.506 16.6055 206.77 16.2392C207.035 15.8934 207.156 15.4662 207.156 14.9982C207.156 14.6117 207.055 14.2658 206.852 14.0013C206.648 13.7369 206.364 13.4927 205.998 13.3096C205.632 13.1265 205.185 12.9434 204.656 12.801L203.254 12.3941C202.258 12.1093 201.506 11.7228 200.978 11.2141C200.469 10.7055 200.205 10.0749 200.205 9.3221C200.205 8.67108 200.368 8.10143 200.713 7.61316C201.059 7.12489 201.526 6.73835 202.116 6.45352C202.705 6.1687 203.376 6.04663 204.128 6.04663C204.88 6.04663 205.551 6.18904 206.14 6.47387C206.709 6.75869 207.177 7.14524 207.502 7.63351C207.827 8.12177 208.01 8.69142 208.051 9.3221H206.933C206.872 8.63039 206.587 8.10143 206.079 7.69454C205.571 7.28765 204.9 7.0842 204.108 7.0842C203.559 7.0842 203.071 7.18593 202.665 7.36903C202.258 7.55213 201.912 7.81661 201.689 8.14212C201.445 8.46763 201.343 8.85418 201.343 9.28141C201.343 9.68831 201.445 10.0138 201.669 10.2783C201.892 10.5428 202.177 10.7869 202.543 10.97C202.908 11.1531 203.295 11.3159 203.721 11.4379L205.002 11.8041C205.429 11.9262 205.835 12.0686 206.222 12.2517C206.608 12.4145 206.953 12.6383 207.278 12.8824C207.583 13.1265 207.827 13.4317 208.01 13.7776C208.193 14.1234 208.274 14.5303 208.274 15.0186C208.274 15.6696 208.112 16.2392 207.766 16.7682C207.421 17.2768 206.953 17.6837 206.323 17.9889C205.693 18.2737 204.961 18.4365 204.087 18.4365H204.128Z" fill="#1A171B"/>
<path d="M299.943 17.7041V22.1392H299.536V18.1109H299.516L298.479 18.8637V18.4161L299.455 17.7041H299.963H299.943Z" fill="#1A171B"/>
<path d="M306.061 22.2002C305.776 22.2002 305.532 22.1392 305.309 22.0374C305.085 21.9357 304.923 21.7933 304.78 21.5899C304.658 21.4068 304.597 21.2033 304.597 20.9592C304.597 20.7761 304.638 20.593 304.719 20.4302C304.801 20.2675 304.902 20.1454 305.045 20.0233C305.187 19.9013 305.329 19.8402 305.512 19.8199C305.288 19.7385 305.106 19.6164 304.963 19.4333C304.821 19.2502 304.76 19.0265 304.76 18.7823C304.76 18.5585 304.821 18.3551 304.923 18.1923C305.045 18.0092 305.187 17.8668 305.39 17.7854C305.593 17.6837 305.817 17.6227 306.061 17.6227C306.305 17.6227 306.528 17.6634 306.732 17.7854C306.935 17.8872 307.077 18.0296 307.199 18.1923C307.321 18.3551 307.362 18.5585 307.362 18.7823C307.362 19.0265 307.301 19.2299 307.158 19.4333C307.016 19.6368 306.833 19.7385 306.61 19.7995C306.772 19.8402 306.935 19.9216 307.077 20.0233C307.219 20.1251 307.321 20.2675 307.402 20.4302C307.484 20.593 307.524 20.7557 307.524 20.9592C307.524 21.2033 307.463 21.4068 307.341 21.5899C307.219 21.773 307.036 21.9154 306.813 22.0374C306.589 22.1392 306.345 22.2002 306.061 22.2002ZM306.061 21.834C306.264 21.834 306.447 21.7933 306.61 21.7119C306.772 21.6306 306.894 21.5288 306.975 21.4068C307.057 21.2847 307.118 21.1219 307.118 20.9592C307.118 20.7964 307.077 20.6133 306.975 20.4913C306.874 20.3488 306.752 20.2471 306.589 20.1657C306.427 20.0844 306.244 20.0437 306.041 20.0437C305.837 20.0437 305.654 20.0844 305.492 20.1657C305.329 20.2471 305.207 20.3488 305.106 20.4913C305.004 20.6337 304.963 20.7964 304.963 20.9592C304.963 21.1219 305.004 21.2847 305.106 21.4068C305.187 21.5492 305.309 21.6509 305.471 21.7119C305.634 21.7933 305.817 21.834 306.02 21.834H306.061ZM306.061 19.6775C306.223 19.6775 306.386 19.6368 306.528 19.5758C306.671 19.4944 306.772 19.413 306.854 19.2706C306.935 19.1485 306.975 19.0061 306.975 18.8434C306.975 18.6806 306.935 18.5382 306.854 18.4161C306.772 18.294 306.671 18.1923 306.528 18.1313C306.386 18.0499 306.244 18.0296 306.061 18.0296C305.878 18.0296 305.736 18.0703 305.593 18.1313C305.451 18.1923 305.349 18.294 305.268 18.4161C305.187 18.5382 305.146 18.6806 305.146 18.8434C305.146 19.0061 305.187 19.1485 305.268 19.2706C305.349 19.3927 305.451 19.4944 305.593 19.5758C305.736 19.6571 305.878 19.6775 306.061 19.6775Z" fill="#1A171B"/>
<path d="M313.317 22.2002C313.073 22.2002 312.829 22.1392 312.626 22.0374C312.423 21.9357 312.26 21.7933 312.158 21.6102C312.057 21.4271 311.976 21.2237 311.976 20.9999H312.382C312.382 21.1626 312.443 21.305 312.524 21.4271C312.606 21.5492 312.707 21.6509 312.85 21.7119C312.992 21.773 313.154 21.8137 313.317 21.8137C313.52 21.8137 313.703 21.773 313.846 21.6712C314.008 21.5695 314.11 21.4475 314.211 21.2847C314.313 21.1219 314.333 20.9388 314.333 20.7151C314.333 20.4913 314.293 20.3082 314.191 20.1454C314.11 19.9826 313.967 19.8402 313.825 19.7589C313.683 19.6775 313.5 19.6164 313.297 19.6164C313.134 19.6164 312.972 19.6571 312.809 19.7182C312.667 19.7792 312.545 19.8606 312.443 19.9623L312.037 19.9216L312.28 17.6837H314.557V18.0499H312.646L312.484 19.5554C312.585 19.4537 312.707 19.3723 312.87 19.3113C313.012 19.2502 313.175 19.2299 313.358 19.2299C313.561 19.2299 313.744 19.2706 313.906 19.3316C314.069 19.413 314.211 19.4944 314.354 19.6368C314.496 19.7792 314.577 19.9216 314.638 20.1047C314.699 20.2878 314.74 20.4913 314.74 20.6947C314.74 20.9795 314.679 21.2237 314.557 21.4475C314.435 21.6712 314.272 21.834 314.049 21.9764C313.825 22.0985 313.581 22.1595 313.297 22.1595L313.317 22.2002Z" fill="#1A171B"/>
<path d="M320.655 22.2002C320.37 22.2002 320.126 22.1392 319.903 22.0374C319.679 21.9357 319.516 21.7933 319.374 21.5899C319.252 21.4068 319.191 21.2033 319.191 20.9592C319.191 20.7761 319.232 20.593 319.313 20.4302C319.394 20.2675 319.496 20.1454 319.638 20.0233C319.781 19.9013 319.923 19.8402 320.106 19.8199C319.882 19.7385 319.699 19.6164 319.557 19.4333C319.415 19.2502 319.354 19.0265 319.354 18.7823C319.354 18.5585 319.415 18.3551 319.516 18.1923C319.638 18.0092 319.781 17.8668 319.984 17.7854C320.187 17.6837 320.411 17.6227 320.655 17.6227C320.899 17.6227 321.122 17.6634 321.325 17.7854C321.529 17.8872 321.671 18.0296 321.793 18.1923C321.915 18.3551 321.955 18.5585 321.955 18.7823C321.955 19.0265 321.894 19.2299 321.752 19.4333C321.61 19.6368 321.427 19.7385 321.203 19.7995C321.366 19.8402 321.529 19.9216 321.671 20.0233C321.813 20.1251 321.915 20.2675 321.996 20.4302C322.077 20.593 322.118 20.7557 322.118 20.9592C322.118 21.2033 322.057 21.4068 321.935 21.5899C321.813 21.773 321.63 21.9154 321.407 22.0374C321.183 22.1392 320.939 22.2002 320.655 22.2002ZM320.655 21.834C320.858 21.834 321.041 21.7933 321.203 21.7119C321.366 21.6306 321.488 21.5288 321.569 21.4068C321.651 21.2847 321.712 21.1219 321.712 20.9592C321.712 20.7964 321.671 20.6133 321.569 20.4913C321.468 20.3488 321.346 20.2471 321.183 20.1657C321.02 20.0844 320.838 20.0437 320.634 20.0437C320.431 20.0437 320.248 20.0844 320.085 20.1657C319.923 20.2471 319.801 20.3488 319.699 20.4913C319.598 20.6337 319.557 20.7964 319.557 20.9592C319.557 21.1219 319.598 21.2847 319.699 21.4068C319.781 21.5492 319.903 21.6509 320.065 21.7119C320.228 21.7933 320.411 21.834 320.614 21.834H320.655ZM320.655 19.6775C320.817 19.6775 320.98 19.6368 321.122 19.5758C321.264 19.4944 321.366 19.413 321.447 19.2706C321.529 19.1485 321.569 19.0061 321.569 18.8434C321.569 18.6806 321.529 18.5382 321.447 18.4161C321.366 18.294 321.264 18.1923 321.122 18.1313C320.98 18.0499 320.838 18.0296 320.655 18.0296C320.472 18.0296 320.329 18.0703 320.187 18.1313C320.045 18.1923 319.943 18.294 319.862 18.4161C319.781 18.5382 319.74 18.6806 319.74 18.8434C319.74 19.0061 319.781 19.1485 319.862 19.2706C319.943 19.3927 320.045 19.4944 320.187 19.5758C320.329 19.6571 320.472 19.6775 320.655 19.6775Z" fill="#1A171B"/>
</svg>
